<svg width="341" height="82" viewBox="0 0 341 82" fill="none" xmlns="http://www.w3.org/2000/svg">
<path d="M245.951 21.6406L248.873 17.9053L255.75 10.4346H263.309L253.553 21.0913L263.902 35H256.168L249.093 25.0464L246.214 27.3535V35H239.513V0.810547H246.214V16.0596L245.863 21.6406H245.951Z" fill="white"/>
<path d="M232.613 35H225.912V20.6519C225.912 18.8794 225.597 17.5537 224.967 16.6748C224.337 15.7812 223.333 15.3345 221.957 15.3345C220.082 15.3345 218.727 15.9644 217.892 17.2241C217.057 18.4692 216.639 20.542 216.639 23.4424V35H209.938V10.4346H215.057L215.958 13.5767H216.332C217.079 12.3901 218.104 11.4966 219.408 10.896C220.726 10.2808 222.22 9.97314 223.89 9.97314C226.747 9.97314 228.915 10.7495 230.394 12.3022C231.874 13.8403 232.613 16.0669 232.613 18.9819V35Z" fill="white"/>
<path d="M198.336 35L197.04 31.6602H196.864C195.736 33.0811 194.571 34.0698 193.37 34.6265C192.184 35.1685 190.631 35.4395 188.712 35.4395C186.354 35.4395 184.493 34.7656 183.131 33.418C181.783 32.0703 181.109 30.1514 181.109 27.6611C181.109 25.0537 182.018 23.1348 183.834 21.9043C185.665 20.6592 188.419 19.9707 192.096 19.8389L196.358 19.707V18.6304C196.358 16.1401 195.084 14.895 192.535 14.895C190.572 14.895 188.265 15.4883 185.614 16.6748L183.395 12.1484C186.222 10.6689 189.356 9.9292 192.799 9.9292C196.095 9.9292 198.622 10.647 200.379 12.0825C202.137 13.5181 203.016 15.7007 203.016 18.6304V35H198.336ZM196.358 23.6182L193.766 23.7061C191.817 23.7646 190.367 24.1162 189.415 24.7607C188.463 25.4053 187.987 26.3867 187.987 27.7051C187.987 29.5947 189.071 30.5396 191.239 30.5396C192.792 30.5396 194.029 30.0928 194.952 29.1992C195.89 28.3057 196.358 27.1191 196.358 25.6396V23.6182Z" fill="white"/>
<path d="M167.926 9.97314C170.826 9.97314 173.097 11.1084 174.737 13.3789C176.378 15.6348 177.198 18.7329 177.198 22.6733C177.198 26.731 176.349 29.873 174.649 32.0996C172.965 34.3262 170.665 35.4395 167.75 35.4395C164.864 35.4395 162.601 34.3921 160.96 32.2974H160.499L159.378 35H154.259V0.810547H160.96V8.76465C160.96 9.77539 160.873 11.394 160.697 13.6206H160.96C162.528 11.189 164.85 9.97314 167.926 9.97314ZM165.772 15.3345C164.117 15.3345 162.909 15.8472 162.147 16.8726C161.385 17.8833 160.99 19.5605 160.96 21.9043V22.6294C160.96 25.2661 161.349 27.1558 162.125 28.2983C162.916 29.4409 164.161 30.0122 165.86 30.0122C167.237 30.0122 168.329 29.3823 169.134 28.1226C169.955 26.8481 170.365 25.0024 170.365 22.5854C170.365 20.1685 169.955 18.3594 169.134 17.1582C168.314 15.9424 167.193 15.3345 165.772 15.3345Z" fill="white"/>
<path d="M149.029 27.7051C149.029 30.2246 148.15 32.1436 146.393 33.4619C144.649 34.7803 142.035 35.4395 138.548 35.4395C136.761 35.4395 135.238 35.3149 133.978 35.0659C132.718 34.8315 131.539 34.48 130.44 34.0112V28.4741C131.686 29.0601 133.084 29.5508 134.637 29.9463C136.205 30.3418 137.582 30.5396 138.768 30.5396C141.2 30.5396 142.416 29.8364 142.416 28.4302C142.416 27.9028 142.254 27.478 141.932 27.1558C141.61 26.8188 141.053 26.4453 140.262 26.0352C139.471 25.6104 138.417 25.1196 137.098 24.563C135.208 23.772 133.817 23.0396 132.923 22.3657C132.044 21.6919 131.4 20.9229 130.99 20.0586C130.594 19.1797 130.396 18.103 130.396 16.8286C130.396 14.646 131.239 12.9614 132.923 11.7749C134.623 10.5737 137.025 9.97314 140.13 9.97314C143.089 9.97314 145.968 10.6177 148.766 11.9067L146.744 16.7407C145.514 16.2134 144.364 15.7812 143.294 15.4443C142.225 15.1074 141.134 14.939 140.021 14.939C138.043 14.939 137.054 15.4736 137.054 16.543C137.054 17.1436 137.369 17.6636 137.999 18.103C138.644 18.5425 140.042 19.1943 142.196 20.0586C144.115 20.835 145.521 21.5601 146.415 22.2339C147.308 22.9077 147.967 23.6841 148.392 24.563C148.817 25.4419 149.029 26.4893 149.029 27.7051Z" fill="white"/>
<path d="M117.85 4.08447C117.85 1.90186 119.066 0.810547 121.498 0.810547C123.929 0.810547 125.145 1.90186 125.145 4.08447C125.145 5.12451 124.837 5.9375 124.222 6.52344C123.622 7.09473 122.713 7.38037 121.498 7.38037C119.066 7.38037 117.85 6.28174 117.85 4.08447ZM124.837 35H118.136V10.4346H124.837V35Z" fill="white"/>
<path d="M111.236 35H104.535V20.6519C104.535 18.8794 104.22 17.5537 103.59 16.6748C102.96 15.7812 101.957 15.3345 100.58 15.3345C98.7046 15.3345 97.3496 15.9644 96.5146 17.2241C95.6797 18.4692 95.2622 20.542 95.2622 23.4424V35H88.5605V10.4346H93.6802L94.5811 13.5767H94.9546C95.7017 12.3901 96.7271 11.4966 98.0308 10.896C99.3491 10.2808 100.843 9.97314 102.513 9.97314C105.37 9.97314 107.538 10.7495 109.017 12.3022C110.497 13.8403 111.236 16.0669 111.236 18.9819V35Z" fill="white"/>
<path d="M81.6611 35H74.9595V20.6519C74.9595 18.8794 74.6445 17.5537 74.0146 16.6748C73.3848 15.7812 72.3813 15.3345 71.0044 15.3345C69.1294 15.3345 67.7744 15.9644 66.9395 17.2241C66.1045 18.4692 65.687 20.542 65.687 23.4424V35H58.9854V10.4346H64.105L65.0059 13.5767H65.3794C66.1265 12.3901 67.1519 11.4966 68.4556 10.896C69.7739 10.2808 71.2681 9.97314 72.938 9.97314C75.7944 9.97314 77.9624 10.7495 79.4419 12.3022C80.9214 13.8403 81.6611 16.0669 81.6611 18.9819V35Z" fill="white"/>
<path d="M42.5718 14.7412C41.1509 14.7412 40.0376 15.1953 39.2319 16.1035C38.4263 16.9971 37.9648 18.2715 37.8477 19.9268H47.252C47.2227 18.2715 46.7905 16.9971 45.9556 16.1035C45.1206 15.1953 43.9927 14.7412 42.5718 14.7412ZM43.5166 35.4395C39.5615 35.4395 36.4707 34.3481 34.2441 32.1655C32.0176 29.9829 30.9043 26.8921 30.9043 22.8931C30.9043 18.7769 31.9297 15.5981 33.9805 13.3569C36.0459 11.1011 38.895 9.97314 42.5278 9.97314C45.9995 9.97314 48.7021 10.9619 50.6357 12.9395C52.5693 14.917 53.5361 17.6489 53.5361 21.1353V24.3872H37.6938C37.7671 26.2915 38.3311 27.7783 39.3857 28.8477C40.4404 29.917 41.9199 30.4517 43.8242 30.4517C45.3037 30.4517 46.7026 30.2979 48.021 29.9902C49.3394 29.6826 50.7163 29.1919 52.1519 28.5181V33.7036C50.98 34.2896 49.7275 34.7217 48.3945 35C47.0615 35.293 45.4355 35.4395 43.5166 35.4395Z" fill="white"/>
<path d="M28.8828 35H21.1484L12.7329 21.4648L9.85449 23.5303V35H3.04297V2.87598H9.85449V17.5757L12.5352 13.7964L21.2363 2.87598H28.7949L17.5889 17.0923L28.8828 35Z" fill="white"/>
<path d="M333.204 70.792C334.405 70.792 335.265 70.4502 335.782 69.7666C336.3 69.0732 336.559 67.9551 336.559 66.4121V65.8701C336.559 64.1221 336.285 62.8672 335.738 62.1055C335.201 61.334 334.332 60.9482 333.131 60.9482C331.031 60.9482 329.981 62.5986 329.981 65.8994C329.981 67.54 330.24 68.7656 330.758 69.5762C331.285 70.3867 332.101 70.792 333.204 70.792ZM340.733 74.0293C340.733 76.3828 340.045 78.165 338.668 79.376C337.301 80.5967 335.26 81.207 332.545 81.207C330.152 81.207 328.111 80.8848 326.422 80.2402V76.666C328.404 77.5059 330.533 77.9258 332.809 77.9258C335.104 77.9258 336.251 76.6855 336.251 74.2051V73.8828L336.383 71.876H336.251C335.206 73.4873 333.658 74.293 331.607 74.293C329.645 74.293 328.121 73.5361 327.037 72.0225C325.963 70.5088 325.426 68.4482 325.426 65.8408C325.426 63.1553 325.982 61.0654 327.096 59.5713C328.219 58.0674 329.762 57.3154 331.725 57.3154C333.736 57.3154 335.318 58.1162 336.471 59.7178H336.588L336.954 57.623H340.733V74.0293Z" fill="white"/>
<path d="M321.822 74H317.354V64.4346C317.354 63.2529 317.145 62.3691 316.725 61.7832C316.305 61.1875 315.636 60.8896 314.718 60.8896C313.468 60.8896 312.564 61.3096 312.008 62.1494C311.451 62.9795 311.173 64.3613 311.173 66.2949V74H306.705V57.623H310.118L310.719 59.7178H310.968C311.466 58.9268 312.149 58.3311 313.019 57.9307C313.897 57.5205 314.894 57.3154 316.007 57.3154C317.911 57.3154 319.356 57.833 320.343 58.8682C321.329 59.8936 321.822 61.3779 321.822 63.3213V74Z" fill="white"/>
<path d="M297.345 53.3896C297.345 51.9346 298.155 51.207 299.776 51.207C301.397 51.207 302.208 51.9346 302.208 53.3896C302.208 54.083 302.003 54.625 301.593 55.0156C301.192 55.3965 300.587 55.5869 299.776 55.5869C298.155 55.5869 297.345 54.8545 297.345 53.3896ZM302.003 74H297.535V57.623H302.003V74Z" fill="white"/>
<path d="M283.736 74.293C281.812 74.293 280.299 73.5459 279.195 72.0518C278.102 70.5576 277.555 68.4873 277.555 65.8408C277.555 63.1553 278.111 61.0654 279.225 59.5713C280.348 58.0674 281.891 57.3154 283.854 57.3154C285.914 57.3154 287.486 58.1162 288.57 59.7178H288.717C288.492 58.4971 288.38 57.4082 288.38 56.4512V51.207H292.862V74H289.435L288.57 71.876H288.38C287.364 73.4873 285.816 74.293 283.736 74.293ZM285.304 70.7334C286.446 70.7334 287.281 70.4014 287.809 69.7373C288.346 69.0732 288.639 67.9453 288.688 66.3535V65.8701C288.688 64.1123 288.414 62.8525 287.867 62.0908C287.33 61.3291 286.451 60.9482 285.23 60.9482C284.234 60.9482 283.458 61.373 282.901 62.2227C282.354 63.0625 282.081 64.2881 282.081 65.8994C282.081 67.5107 282.359 68.7217 282.916 69.5322C283.473 70.333 284.269 70.7334 285.304 70.7334Z" fill="white"/>
<path d="M270.436 74L269.835 71.9053H269.601C269.122 72.667 268.443 73.2578 267.564 73.6777C266.686 74.0879 265.685 74.293 264.562 74.293C262.638 74.293 261.188 73.7803 260.211 72.7549C259.234 71.7197 258.746 70.2354 258.746 68.3018V57.623H263.214V67.1885C263.214 68.3701 263.424 69.2588 263.844 69.8545C264.264 70.4404 264.933 70.7334 265.851 70.7334C267.101 70.7334 268.004 70.3184 268.561 69.4883C269.117 68.6484 269.396 67.2617 269.396 65.3281V57.623H273.863V74H270.436Z" fill="white"/>
<path d="M243.819 65.7822C243.819 67.4033 244.083 68.6289 244.61 69.459C245.147 70.2891 246.017 70.7041 247.218 70.7041C248.409 70.7041 249.264 70.2939 249.781 69.4736C250.309 68.6436 250.572 67.4131 250.572 65.7822C250.572 64.1611 250.309 62.9453 249.781 62.1348C249.254 61.3242 248.39 60.9189 247.188 60.9189C245.997 60.9189 245.138 61.3242 244.61 62.1348C244.083 62.9355 243.819 64.1514 243.819 65.7822ZM255.143 65.7822C255.143 68.4482 254.439 70.5332 253.033 72.0371C251.627 73.541 249.669 74.293 247.159 74.293C245.587 74.293 244.2 73.9512 242.999 73.2676C241.798 72.5742 240.875 71.583 240.23 70.2939C239.586 69.0049 239.264 67.501 239.264 65.7822C239.264 63.1064 239.962 61.0264 241.358 59.542C242.755 58.0576 244.718 57.3154 247.247 57.3154C248.819 57.3154 250.206 57.6572 251.407 58.3408C252.608 59.0244 253.531 60.0059 254.176 61.2852C254.82 62.5645 255.143 64.0635 255.143 65.7822Z" fill="white"/>
<path d="M235.66 74H231.192V64.4346C231.192 62.0713 230.313 60.8896 228.556 60.8896C227.306 60.8896 226.402 61.3145 225.846 62.1641C225.289 63.0137 225.011 64.3906 225.011 66.2949V74H220.543V51.207H225.011V55.8506C225.011 56.2119 224.977 57.0615 224.908 58.3994L224.806 59.7178H225.04C226.036 58.1162 227.618 57.3154 229.786 57.3154C231.71 57.3154 233.17 57.833 234.166 58.8682C235.162 59.9033 235.66 61.3877 235.66 63.3213V74Z" fill="white"/>
<path d="M206.231 65.0938L208.18 62.6035L212.765 57.623H217.804L211.3 64.7275L218.199 74H213.043L208.326 67.3643L206.407 68.9023V74H201.939V51.207H206.407V61.373L206.173 65.0938H206.231Z" fill="white"/>
<path d="M190.997 60.4941C190.05 60.4941 189.308 60.7969 188.771 61.4023C188.233 61.998 187.926 62.8477 187.848 63.9512H194.117C194.098 62.8477 193.81 61.998 193.253 61.4023C192.696 60.7969 191.944 60.4941 190.997 60.4941ZM191.627 74.293C188.99 74.293 186.93 73.5654 185.445 72.1104C183.961 70.6553 183.219 68.5947 183.219 65.9287C183.219 63.1846 183.902 61.0654 185.27 59.5713C186.646 58.0674 188.546 57.3154 190.968 57.3154C193.282 57.3154 195.084 57.9746 196.373 59.293C197.662 60.6113 198.307 62.4326 198.307 64.7568V66.9248H187.745C187.794 68.1943 188.17 69.1855 188.873 69.8984C189.576 70.6113 190.562 70.9678 191.832 70.9678C192.818 70.9678 193.751 70.8652 194.63 70.6602C195.509 70.4551 196.427 70.1279 197.384 69.6787V73.1357C196.603 73.5264 195.768 73.8145 194.879 74C193.99 74.1953 192.906 74.293 191.627 74.293Z" fill="white"/>
<path d="M169.2 65.7822C169.2 67.4033 169.464 68.6289 169.991 69.459C170.528 70.2891 171.397 70.7041 172.599 70.7041C173.79 70.7041 174.645 70.2939 175.162 69.4736C175.689 68.6436 175.953 67.4131 175.953 65.7822C175.953 64.1611 175.689 62.9453 175.162 62.1348C174.635 61.3242 173.771 60.9189 172.569 60.9189C171.378 60.9189 170.519 61.3242 169.991 62.1348C169.464 62.9355 169.2 64.1514 169.2 65.7822ZM180.523 65.7822C180.523 68.4482 179.82 70.5332 178.414 72.0371C177.008 73.541 175.05 74.293 172.54 74.293C170.968 74.293 169.581 73.9512 168.38 73.2676C167.179 72.5742 166.256 71.583 165.611 70.2939C164.967 69.0049 164.645 67.501 164.645 65.7822C164.645 63.1064 165.343 61.0264 166.739 59.542C168.136 58.0576 170.099 57.3154 172.628 57.3154C174.2 57.3154 175.587 57.6572 176.788 58.3408C177.989 59.0244 178.912 60.0059 179.557 61.2852C180.201 62.5645 180.523 64.0635 180.523 65.7822Z" fill="white"/>
<path d="M155.768 57.3154C157.701 57.3154 159.215 58.0723 160.309 59.5859C161.402 61.0898 161.949 63.1553 161.949 65.7822C161.949 68.4873 161.383 70.582 160.25 72.0664C159.127 73.5508 157.594 74.293 155.65 74.293C153.727 74.293 152.218 73.5947 151.124 72.1982H150.816L150.069 74H146.656V51.207H151.124V56.5098C151.124 57.1836 151.065 58.2627 150.948 59.7471H151.124C152.169 58.126 153.717 57.3154 155.768 57.3154ZM154.332 60.8896C153.229 60.8896 152.423 61.2314 151.915 61.915C151.407 62.5889 151.144 63.707 151.124 65.2695V65.7529C151.124 67.5107 151.383 68.7705 151.9 69.5322C152.428 70.2939 153.258 70.6748 154.391 70.6748C155.309 70.6748 156.036 70.2549 156.573 69.415C157.12 68.5654 157.394 67.335 157.394 65.7236C157.394 64.1123 157.12 62.9062 156.573 62.1055C156.026 61.2949 155.279 60.8896 154.332 60.8896Z" fill="white"/>
<path d="M143.17 69.1367C143.17 70.8164 142.584 72.0957 141.412 72.9746C140.25 73.8535 138.507 74.293 136.183 74.293C134.991 74.293 133.976 74.21 133.136 74.0439C132.296 73.8877 131.51 73.6533 130.777 73.3408V69.6494C131.607 70.04 132.54 70.3672 133.575 70.6309C134.62 70.8945 135.538 71.0264 136.329 71.0264C137.95 71.0264 138.761 70.5576 138.761 69.6201C138.761 69.2686 138.653 68.9854 138.438 68.7705C138.224 68.5459 137.853 68.2969 137.325 68.0234C136.798 67.7402 136.095 67.4131 135.216 67.042C133.956 66.5146 133.028 66.0264 132.433 65.5771C131.847 65.1279 131.417 64.6152 131.144 64.0391C130.88 63.4531 130.748 62.7354 130.748 61.8857C130.748 60.4307 131.31 59.3076 132.433 58.5166C133.565 57.7158 135.167 57.3154 137.237 57.3154C139.21 57.3154 141.129 57.7451 142.994 58.6045L141.646 61.8271C140.826 61.4756 140.06 61.1875 139.347 60.9629C138.634 60.7383 137.906 60.626 137.164 60.626C135.846 60.626 135.187 60.9824 135.187 61.6953C135.187 62.0957 135.396 62.4424 135.816 62.7354C136.246 63.0283 137.179 63.4629 138.614 64.0391C139.894 64.5566 140.831 65.04 141.427 65.4893C142.022 65.9385 142.462 66.4561 142.745 67.042C143.028 67.6279 143.17 68.3262 143.17 69.1367Z" fill="white"/>
<path d="M127.145 74H122.677V64.4346C122.677 63.2529 122.467 62.3691 122.047 61.7832C121.627 61.1875 120.958 60.8896 120.04 60.8896C118.79 60.8896 117.887 61.3096 117.33 62.1494C116.773 62.9795 116.495 64.3613 116.495 66.2949V74H112.027V57.623H115.44L116.041 59.7178H116.29C116.788 58.9268 117.472 58.3311 118.341 57.9307C119.22 57.5205 120.216 57.3154 121.329 57.3154C123.233 57.3154 124.679 57.833 125.665 58.8682C126.651 59.8936 127.145 61.3779 127.145 63.3213V74Z" fill="white"/>
<path d="M101.085 60.4941C100.138 60.4941 99.3955 60.7969 98.8584 61.4023C98.3213 61.998 98.0137 62.8477 97.9355 63.9512H104.205C104.186 62.8477 103.897 61.998 103.341 61.4023C102.784 60.7969 102.032 60.4941 101.085 60.4941ZM101.715 74.293C99.0781 74.293 97.0176 73.5654 95.5332 72.1104C94.0488 70.6553 93.3066 68.5947 93.3066 65.9287C93.3066 63.1846 93.9902 61.0654 95.3574 59.5713C96.7344 58.0674 98.6338 57.3154 101.056 57.3154C103.37 57.3154 105.172 57.9746 106.461 59.293C107.75 60.6113 108.395 62.4326 108.395 64.7568V66.9248H97.833C97.8818 68.1943 98.2578 69.1855 98.9609 69.8984C99.6641 70.6113 100.65 70.9678 101.92 70.9678C102.906 70.9678 103.839 70.8652 104.718 70.6602C105.597 70.4551 106.515 70.1279 107.472 69.6787V73.1357C106.69 73.5264 105.855 73.8145 104.967 74C104.078 74.1953 102.994 74.293 101.715 74.293Z" fill="white"/>
<path d="M81.1191 74L74.8789 57.623H79.5518L82.7158 66.9541C83.0381 67.9697 83.248 69.0879 83.3457 70.3086H83.4629C83.5215 69.2051 83.7412 68.0869 84.1221 66.9541L87.2715 57.623H91.9443L85.7041 74H81.1191Z" fill="white"/>
<path d="M66.5732 60.4941C65.626 60.4941 64.8838 60.7969 64.3467 61.4023C63.8096 61.998 63.502 62.8477 63.4238 63.9512H69.6934C69.6738 62.8477 69.3857 61.998 68.8291 61.4023C68.2725 60.7969 67.5205 60.4941 66.5732 60.4941ZM67.2031 74.293C64.5664 74.293 62.5059 73.5654 61.0215 72.1104C59.5371 70.6553 58.7949 68.5947 58.7949 65.9287C58.7949 63.1846 59.4785 61.0654 60.8457 59.5713C62.2227 58.0674 64.1221 57.3154 66.5439 57.3154C68.8584 57.3154 70.6602 57.9746 71.9492 59.293C73.2383 60.6113 73.8828 62.4326 73.8828 64.7568V66.9248H63.3213C63.3701 68.1943 63.7461 69.1855 64.4492 69.8984C65.1523 70.6113 66.1387 70.9678 67.4082 70.9678C68.3945 70.9678 69.3271 70.8652 70.2061 70.6602C71.085 70.4551 72.0029 70.1279 72.96 69.6787V73.1357C72.1787 73.5264 71.3438 73.8145 70.4551 74C69.5664 74.1953 68.4824 74.293 67.2031 74.293Z" fill="white"/>
<path d="M47.5889 70.792C48.79 70.792 49.6494 70.4502 50.167 69.7666C50.6846 69.0732 50.9434 67.9551 50.9434 66.4121V65.8701C50.9434 64.1221 50.6699 62.8672 50.123 62.1055C49.5859 61.334 48.7168 60.9482 47.5156 60.9482C45.416 60.9482 44.3662 62.5986 44.3662 65.8994C44.3662 67.54 44.625 68.7656 45.1426 69.5762C45.6699 70.3867 46.4854 70.792 47.5889 70.792ZM55.1182 74.0293C55.1182 76.3828 54.4297 78.165 53.0527 79.376C51.6855 80.5967 49.6445 81.207 46.9297 81.207C44.5371 81.207 42.4961 80.8848 40.8066 80.2402V76.666C42.7891 77.5059 44.918 77.9258 47.1934 77.9258C49.4883 77.9258 50.6357 76.6855 50.6357 74.2051V73.8828L50.7676 71.876H50.6357C49.5908 73.4873 48.043 74.293 45.9922 74.293C44.0293 74.293 42.5059 73.5361 41.4219 72.0225C40.3477 70.5088 39.8105 68.4482 39.8105 65.8408C39.8105 63.1553 40.3672 61.0654 41.4805 59.5713C42.6035 58.0674 44.1465 57.3154 46.1094 57.3154C48.1211 57.3154 49.7031 58.1162 50.8555 59.7178H50.9727L51.3389 57.623H55.1182V74.0293Z" fill="white"/>
<path d="M29.8643 60.4941C28.917 60.4941 28.1748 60.7969 27.6377 61.4023C27.1006 61.998 26.793 62.8477 26.7148 63.9512H32.9844C32.9648 62.8477 32.6768 61.998 32.1201 61.4023C31.5635 60.7969 30.8115 60.4941 29.8643 60.4941ZM30.4941 74.293C27.8574 74.293 25.7969 73.5654 24.3125 72.1104C22.8281 70.6553 22.0859 68.5947 22.0859 65.9287C22.0859 63.1846 22.7695 61.0654 24.1367 59.5713C25.5137 58.0674 27.4131 57.3154 29.835 57.3154C32.1494 57.3154 33.9512 57.9746 35.2402 59.293C36.5293 60.6113 37.1738 62.4326 37.1738 64.7568V66.9248H26.6123C26.6611 68.1943 27.0371 69.1855 27.7402 69.8984C28.4434 70.6113 29.4297 70.9678 30.6992 70.9678C31.6855 70.9678 32.6182 70.8652 33.4971 70.6602C34.376 70.4551 35.2939 70.1279 36.251 69.6787V73.1357C35.4697 73.5264 34.6348 73.8145 33.7461 74C32.8574 74.1953 31.7734 74.293 30.4941 74.293Z" fill="white"/>
<path d="M9.8252 61.9736H18.3213V73.0771C16.9443 73.5264 15.6455 73.8389 14.4248 74.0146C13.2139 74.2002 11.9736 74.293 10.7041 74.293C7.47168 74.293 5.00098 73.3457 3.29199 71.4512C1.59277 69.5469 0.743164 66.8174 0.743164 63.2627C0.743164 59.8057 1.72949 57.1104 3.70215 55.1768C5.68457 53.2432 8.42871 52.2764 11.9346 52.2764C14.1318 52.2764 16.251 52.7158 18.292 53.5947L16.7832 57.2275C15.2207 56.4463 13.5947 56.0557 11.9053 56.0557C9.94238 56.0557 8.37012 56.7148 7.18848 58.0332C6.00684 59.3516 5.41602 61.124 5.41602 63.3506C5.41602 65.6748 5.88965 67.4521 6.83691 68.6826C7.79395 69.9033 9.18066 70.5137 10.9971 70.5137C11.9443 70.5137 12.9062 70.416 13.8828 70.2207V65.7529H9.8252V61.9736Z" fill="white"/>
</svg>
